<svg width="35" height="36" viewBox="0 0 35 36" fill="none" xmlns="http://www.w3.org/2000/svg">
<path d="M11.4826 24.9481C12.924 27.0236 14.3631 28.88 15.3168 30.0756C15.4557 30.2496 15.5858 30.411 15.7118 30.5665H12.8336C12.5114 30.5665 12.2503 30.8332 12.2503 31.1622C12.2503 31.4912 12.5114 31.7579 12.8336 31.7579H22.1669C22.4891 31.7579 22.7502 31.4912 22.7502 31.1622C22.7502 30.8332 22.4891 30.5665 22.1669 30.5665H19.2887C19.4147 30.411 19.5448 30.2495 19.6843 30.0756C20.6374 28.8841 22.076 27.0236 23.518 24.9481C24.9486 22.9301 26.2364 20.8104 27.3715 18.6052C28.5626 16.2162 29.167 14.233 29.167 12.7103C29.1709 9.5463 27.9416 6.51079 25.7504 4.27396C25.604 4.11897 25.3872 4.0567 25.1832 4.11108C24.9792 4.16547 24.8198 4.328 24.7663 4.53625C24.7127 4.7445 24.7734 4.96602 24.9249 5.11571C26.8972 7.12942 28.0038 9.862 28.0003 12.7103C28.0003 14.0436 27.4391 15.845 26.332 18.0642C25.2226 20.2183 23.964 22.2889 22.566 24.26C21.1438 26.3087 19.7222 28.1442 18.7802 29.3238C18.4669 29.7158 18.1851 30.0625 17.9448 30.3556C17.8326 30.4865 17.6706 30.5614 17.5003 30.5614C17.33 30.5614 17.168 30.4864 17.0558 30.3556C16.8155 30.0626 16.5338 29.7158 16.2205 29.3238C15.2784 28.1448 13.8568 26.3093 12.4347 24.26C11.0366 22.2889 9.77808 20.2183 8.66867 18.0642C7.56036 15.845 7.00036 14.0436 7.00036 12.7103C7.00001 8.39514 9.52686 4.49827 13.4171 2.81436C16.031 1.69497 18.9757 1.69497 21.5896 2.81436C21.7815 2.89744 22.0023 2.86972 22.1687 2.74148C22.3352 2.6133 22.422 2.40414 22.3965 2.19281C22.371 1.98148 22.2371 1.80011 22.0451 1.71703C16.1048 -0.841788 9.25807 2.00061 6.75071 8.06646C6.14265 9.53576 5.83079 11.1152 5.83373 12.7103C5.83373 14.233 6.4381 16.2162 7.62926 18.6081C8.76417 20.8124 10.052 22.9311 11.4826 24.9481Z" fill="#6BC9BD"/>
<path d="M17.5003 7.33256C17.8225 7.33256 18.0836 7.06587 18.0836 6.73683C18.0836 6.4078 17.8225 6.14111 17.5003 6.14111C14.7174 6.14104 12.3219 8.14875 11.7789 10.9363C11.236 13.7238 12.6967 16.5148 15.2678 17.6025C17.8389 18.6902 20.8043 17.7715 22.3504 15.4084C23.8966 13.0453 23.5929 9.89577 21.6251 7.88604C21.4786 7.73119 21.2617 7.66906 21.0577 7.72358C20.8538 7.77811 20.6945 7.94077 20.6412 8.14903C20.5878 8.35735 20.6486 8.5788 20.8002 8.72841C22.3745 10.3362 22.6176 12.8557 21.3807 14.7462C20.1439 16.6368 17.7716 17.3718 15.7147 16.5018C13.6579 15.6317 12.4892 13.399 12.9234 11.1689C13.3576 8.93883 15.274 7.33263 17.5003 7.33256Z" fill="#6BC9BD"/>
<path d="M34.7804 33.2897L31.1929 26.7365C30.8685 26.1543 30.2615 25.7964 29.6056 25.8006H25.4482C25.126 25.8006 24.8649 26.0673 24.8649 26.3963C24.8649 26.7253 25.126 26.992 25.4482 26.992H29.6056C29.8392 26.9874 30.057 27.1118 30.1756 27.3173L33.7619 33.8705C33.8596 34.041 33.8575 34.2524 33.7566 34.421C33.6375 34.622 33.422 34.7425 33.192 34.7367H1.80857C1.57874 34.7423 1.36355 34.6218 1.24446 34.421C1.14356 34.2524 1.14158 34.041 1.2392 33.8705L4.82555 27.3173C4.94388 27.1118 5.16154 26.9875 5.39485 26.992H9.55228C9.87445 26.992 10.1356 26.7253 10.1356 26.3963C10.1356 26.0673 9.87445 25.8006 9.55228 25.8006H5.39492C4.73866 25.7962 4.13122 26.154 3.80651 26.7365L0.219548 33.2897C-0.0795256 33.8292 -0.0726212 34.4911 0.237663 35.024C0.564559 35.5914 1.164 35.9365 1.80857 35.9283H33.192C33.8363 35.9363 34.4356 35.5913 34.7623 35.024C35.0726 34.491 35.0795 33.8292 34.7804 33.2897Z" fill="#6BC9BD"/>
<path d="M28.5835 28.7794H26.2502C26.135 28.7796 26.0224 28.8144 25.9265 28.8795L24.1765 30.071C23.9084 30.2537 23.8361 30.6236 24.0149 30.8974C24.1937 31.1711 24.5559 31.245 24.824 31.0624L26.4252 29.971H28.5835C28.9057 29.971 29.1668 29.7042 29.1668 29.3753C29.1668 29.0461 28.9057 28.7794 28.5835 28.7794Z" fill="#6BC9BD"/>
<path d="M25.0835 32.9495C25.0835 33.2785 25.3446 33.5452 25.6668 33.5452H30.3335C30.6557 33.5452 30.9168 33.2785 30.9168 32.9495C30.9168 32.6204 30.6557 32.3538 30.3335 32.3538H25.6668C25.3446 32.3538 25.0835 32.6204 25.0835 32.9495Z" fill="#6BC9BD"/>
<path d="M10.5004 31.1623C10.7575 31.1627 10.9846 30.9909 11.0593 30.7396C11.134 30.4883 11.0387 30.2166 10.8247 30.0709L9.07474 28.8794C8.97862 28.8142 8.86576 28.7794 8.75037 28.7793H6.41705C6.09487 28.7793 5.83374 29.0461 5.83374 29.375C5.83374 29.7041 6.09494 29.9707 6.41705 29.9707H8.57537L10.1784 31.0621C10.2738 31.1272 10.3858 31.162 10.5004 31.1623Z" fill="#6BC9BD"/>
<path d="M4.66681 32.3538C4.34463 32.3538 4.0835 32.6204 4.0835 32.9495C4.0835 33.2785 4.34463 33.5452 4.66681 33.5452H9.33351C9.65569 33.5452 9.91683 33.2785 9.91683 32.9495C9.91683 32.6204 9.65569 32.3538 9.33351 32.3538H4.66681Z" fill="#6BC9BD"/>
</svg>
