<svg width="35" height="36" viewBox="0 0 35 36" fill="none" xmlns="http://www.w3.org/2000/svg">
<path d="M34.0816 27.2463L32.7221 26.3366C35.7881 20.9201 35.7539 14.2743 32.6322 8.88994C29.5105 3.50561 23.7727 0.195695 17.5693 0.200844C17.2472 0.200844 16.9861 0.463089 16.9861 0.786638C16.9861 1.11019 17.2472 1.37243 17.5693 1.37243C23.3419 1.36811 28.6834 4.44043 31.6013 9.4434C34.519 14.4463 34.5749 20.6286 31.7481 25.6839L26.9952 22.5011C26.0961 21.9041 24.8913 22.1006 24.2265 22.9528L22.1653 25.6177C21.8999 25.9687 21.4181 26.0705 21.0344 25.8567L20.6419 25.6394C19.3406 24.927 17.7216 24.0401 14.4595 20.7624C11.1974 17.4848 10.3126 15.8574 9.60332 14.5528L9.38809 14.1585C9.17204 13.7733 9.27156 13.287 9.62137 13.0185L12.2728 10.9465C13.1211 10.2789 13.3171 9.06884 12.7231 8.16561L7.99876 1.05026C7.3899 0.130545 6.1685 -0.145567 5.22603 0.423477L2.26371 2.21079C1.33293 2.76041 0.650048 3.65053 0.358265 4.69464C-0.708462 8.59852 0.0940261 15.336 9.97542 25.2621C14.2798 29.5855 17.9805 32.1748 21.1096 33.6393C16.2934 34.7323 11.2438 33.5624 7.39093 30.461C3.53801 27.3596 1.30128 22.6644 1.3142 17.7051C1.3142 17.3816 1.0531 17.1194 0.730974 17.1194C0.408843 17.1194 0.147749 17.3816 0.147749 17.7051C0.156771 27.3665 7.95044 35.1971 17.5694 35.2094C19.3714 35.21 21.1624 34.9265 22.8769 34.3693C24.4237 34.9496 26.0586 35.2576 27.7097 35.2797C28.6353 35.2837 29.5573 35.1627 30.4509 34.92C31.4907 34.6273 32.377 33.9413 32.9239 33.0062L34.7051 30.0326C35.2725 29.0857 34.9977 27.8581 34.0816 27.2463ZM33.7025 29.4296L31.9253 32.405C31.5324 33.0812 30.894 33.5781 30.1441 33.7916C28.4474 34.2603 26.1494 34.3189 23.1964 33.2498C23.1496 33.2234 23.0993 33.2037 23.0471 33.1912C19.7809 31.9733 15.7256 29.3775 10.7989 24.4309C1.31536 14.9061 0.498244 8.60909 1.48336 5.0046C1.69634 4.25164 2.19105 3.61051 2.86388 3.21549L5.82621 1.43051C6.23514 1.18337 6.76526 1.30316 7.02943 1.7023L9.59574 5.5722L11.7497 8.81703C12.0076 9.20882 11.9229 9.73393 11.5549 10.0238L8.90288 12.0959C8.09581 12.7157 7.86534 13.8372 8.36224 14.7274L8.57282 15.1117C9.31824 16.4848 10.245 18.193 13.6284 21.5908C17.0118 24.9886 18.712 25.9195 20.0785 26.6681L20.4617 26.8802C21.3478 27.3792 22.4645 27.1478 23.0817 26.3371L25.1446 23.6734C25.4333 23.304 25.9559 23.219 26.3461 23.4778L33.4296 28.2229C33.8271 28.4872 33.9473 29.0188 33.7025 29.4296Z" fill="#6BC9BD"/>
</svg>
