<svg width="35" height="36" viewBox="0 0 35 36" fill="none" xmlns="http://www.w3.org/2000/svg">
<path d="M34.993 13.896C34.9893 13.8557 34.9813 13.8158 34.969 13.7771C34.961 13.7426 34.9499 13.7089 34.9358 13.6763C34.9195 13.6445 34.8999 13.6145 34.8775 13.5867C34.855 13.5536 34.829 13.5232 34.7999 13.4958C34.7905 13.4877 34.7865 13.4765 34.7766 13.4683L29.1664 9.09221V4.55677C29.1664 3.58604 28.3828 2.79905 27.4163 2.79905H21.0944L18.5631 0.825132C17.9378 0.335308 17.0609 0.335308 16.4356 0.825132L13.9038 2.79905H7.58185C6.61534 2.79905 5.83176 3.58597 5.83176 4.55677V9.09228L0.223341 13.4684C0.213429 13.4766 0.209327 13.4877 0.20003 13.4959C0.170975 13.5232 0.144929 13.5537 0.122438 13.5867C0.100015 13.6145 0.0804631 13.6445 0.0641244 13.6764C0.0499732 13.7089 0.0388985 13.7427 0.0309 13.7772C0.0187314 13.8153 0.010733 13.8546 0.00697301 13.8944C0.00697301 13.9067 0 13.9173 0 13.9296V33.8519C0.000820354 34.2246 0.120866 34.5871 0.34243 34.886C0.345916 34.8913 0.346531 34.8977 0.350565 34.9024C0.354666 34.9071 0.363417 34.9124 0.369228 34.9188C0.696959 35.3519 1.20667 35.6073 1.74831 35.6096H33.2499C33.7937 35.608 34.3055 35.3514 34.6336 34.9159C34.6383 34.9101 34.6453 34.9083 34.6494 34.9025C34.6535 34.8966 34.654 34.8913 34.6576 34.8861C34.8791 34.5871 34.9992 34.2246 35 33.852V13.9312C34.9999 13.9189 34.9936 13.9083 34.993 13.896ZM17.149 1.74965C17.3527 1.58706 17.6412 1.58706 17.845 1.74965L19.1908 2.79899H15.8073L17.149 1.74965ZM1.89529 34.4378L17.1491 22.5375C17.353 22.3752 17.6412 22.3752 17.845 22.5375L33.1029 34.4378H1.89529ZM33.8333 33.5244L18.5631 21.6129C17.9377 21.1235 17.061 21.1235 16.4356 21.6129L1.1649 33.5244V14.8235L10.7245 22.2792C10.9792 22.4775 11.3458 22.431 11.5433 22.1751C11.7408 21.9193 11.6944 21.5512 11.4397 21.3528L1.72787 13.7788L5.83183 10.5757V15.103C5.83183 15.4266 6.09304 15.6888 6.41517 15.6888C6.73736 15.6888 6.99851 15.4265 6.99851 15.103V4.5567C6.99851 4.2331 7.25966 3.97082 7.58185 3.97082H27.4162C27.7384 3.97082 27.9995 4.2331 27.9995 4.5567V15.103C27.9995 15.4266 28.2607 15.6888 28.5828 15.6888C28.905 15.6888 29.1662 15.4265 29.1662 15.103V10.5757L33.2701 13.7788L23.5414 21.3663C23.3741 21.4937 23.2877 21.7016 23.3155 21.9107C23.3432 22.1197 23.4807 22.2977 23.6755 22.3766C23.8703 22.4555 24.0922 22.4232 24.2566 22.292L33.8331 14.8235V33.5244H33.8333Z" fill="#6BC9BD"/>
<path d="M24.4995 14.5171V12.1735C24.4995 8.29051 21.3653 5.1427 17.4991 5.1427C13.6329 5.1427 10.4988 8.29051 10.4988 12.1735C10.4988 16.0566 13.6329 19.2044 17.4991 19.2044C17.8213 19.2044 18.0825 18.9421 18.0825 18.6185C18.0825 18.2949 17.8213 18.0326 17.4991 18.0326C14.2773 18.0326 11.6655 15.4094 11.6655 12.1736C11.6655 8.93778 14.2773 6.3146 17.4991 6.3146C20.7209 6.3146 23.3327 8.93778 23.3327 12.1736V14.5172C23.3327 15.1644 22.8104 15.689 22.166 15.689C21.5216 15.689 20.9992 15.1644 20.9992 14.5172V12.1736C20.9992 11.85 20.7381 11.5877 20.4159 11.5877C20.0937 11.5877 19.8326 11.85 19.8326 12.1736C19.8326 13.4679 18.7878 14.5172 17.4991 14.5172C16.2104 14.5172 15.1657 13.4679 15.1657 12.1736C15.1657 10.8793 16.2104 9.83002 17.4991 9.83002C17.8213 9.83002 18.0825 9.56774 18.0825 9.24414C18.0825 8.92054 17.8213 8.65826 17.4991 8.65826C15.9326 8.65476 14.5545 9.69709 14.1252 11.2102C13.6958 12.7234 14.3198 14.3388 15.6529 15.1652C16.9859 15.9916 18.7033 15.8277 19.8577 14.764C19.9847 16.003 21.0569 16.9243 22.2954 16.8585C23.5339 16.7925 24.5034 15.7628 24.4995 14.5171Z" fill="#6BC9BD"/>
</svg>
